<svg xmlns="http://www.w3.org/2000/svg" width="964" height="560" viewBox="0 0 964 560" style="background:#fafaf7; font-family:Noto Sans JP, Hiragino Kaku Gothic Pro, Meiryo, sans-serif;">
  <rect x="0" y="60.0" width="964" height="90" fill="#f4f3ee"/>
  <rect x="0" y="150.0" width="964" height="90" fill="#fafaf7"/>
  <rect x="0" y="240.0" width="964" height="90" fill="#f4f3ee"/>
  <rect x="0" y="330.0" width="964" height="90" fill="#fafaf7"/>
  <rect x="0" y="420.0" width="964" height="90" fill="#f4f3ee"/>
  <line x1="160.0" y1="40" x2="160.0" y2="520" stroke="#c8c6be" stroke-width="1" stroke-dasharray="4 4"/>
  <text x="160.0" y="536" text-anchor="middle" font-size="13" fill="#888780">1999</text>
  <text x="160.0" y="54" text-anchor="middle" font-size="13" fill="#888780">1999</text>
  <line x1="419.8" y1="40" x2="419.8" y2="520" stroke="#c8c6be" stroke-width="1" stroke-dasharray="4 4"/>
  <text x="419.8" y="536" text-anchor="middle" font-size="13" fill="#888780">2000</text>
  <text x="419.8" y="54" text-anchor="middle" font-size="13" fill="#888780">2000</text>
  <line x1="680.2" y1="40" x2="680.2" y2="520" stroke="#c8c6be" stroke-width="1" stroke-dasharray="4 4"/>
  <text x="680.2" y="536" text-anchor="middle" font-size="13" fill="#888780">2001</text>
  <text x="680.2" y="54" text-anchor="middle" font-size="13" fill="#888780">2001</text>
  <line x1="940.0" y1="40" x2="940.0" y2="520" stroke="#c8c6be" stroke-width="1" stroke-dasharray="4 4"/>
  <text x="940.0" y="536" text-anchor="middle" font-size="13" fill="#888780">2002</text>
  <text x="940.0" y="54" text-anchor="middle" font-size="13" fill="#888780">2002</text>
  <line x1="160.0" y1="60" x2="160.0" y2="510" stroke="#e0ddd5" stroke-width="0.5"/>
  <line x1="182.1" y1="60" x2="182.1" y2="510" stroke="#e0ddd5" stroke-width="0.5"/>
  <line x1="202.0" y1="60" x2="202.0" y2="510" stroke="#e0ddd5" stroke-width="0.5"/>
  <line x1="224.1" y1="60" x2="224.1" y2="510" stroke="#e0ddd5" stroke-width="0.5"/>
  <line x1="245.4" y1="60" x2="245.4" y2="510" stroke="#e0ddd5" stroke-width="0.5"/>
  <line x1="267.5" y1="60" x2="267.5" y2="510" stroke="#e0ddd5" stroke-width="0.5"/>
  <line x1="288.8" y1="60" x2="288.8" y2="510" stroke="#e0ddd5" stroke-width="0.5"/>
  <line x1="310.9" y1="60" x2="310.9" y2="510" stroke="#e0ddd5" stroke-width="0.5"/>
  <line x1="332.9" y1="60" x2="332.9" y2="510" stroke="#e0ddd5" stroke-width="0.5"/>
  <line x1="354.3" y1="60" x2="354.3" y2="510" stroke="#e0ddd5" stroke-width="0.5"/>
  <line x1="376.4" y1="60" x2="376.4" y2="510" stroke="#e0ddd5" stroke-width="0.5"/>
  <line x1="397.7" y1="60" x2="397.7" y2="510" stroke="#e0ddd5" stroke-width="0.5"/>
  <line x1="419.8" y1="60" x2="419.8" y2="510" stroke="#e0ddd5" stroke-width="0.5"/>
  <line x1="441.8" y1="60" x2="441.8" y2="510" stroke="#e0ddd5" stroke-width="0.5"/>
  <line x1="462.5" y1="60" x2="462.5" y2="510" stroke="#e0ddd5" stroke-width="0.5"/>
  <line x1="484.5" y1="60" x2="484.5" y2="510" stroke="#e0ddd5" stroke-width="0.5"/>
  <line x1="505.9" y1="60" x2="505.9" y2="510" stroke="#e0ddd5" stroke-width="0.5"/>
  <line x1="527.9" y1="60" x2="527.9" y2="510" stroke="#e0ddd5" stroke-width="0.5"/>
  <line x1="549.3" y1="60" x2="549.3" y2="510" stroke="#e0ddd5" stroke-width="0.5"/>
  <line x1="571.4" y1="60" x2="571.4" y2="510" stroke="#e0ddd5" stroke-width="0.5"/>
  <line x1="593.4" y1="60" x2="593.4" y2="510" stroke="#e0ddd5" stroke-width="0.5"/>
  <line x1="614.8" y1="60" x2="614.8" y2="510" stroke="#e0ddd5" stroke-width="0.5"/>
  <line x1="636.8" y1="60" x2="636.8" y2="510" stroke="#e0ddd5" stroke-width="0.5"/>
  <line x1="658.2" y1="60" x2="658.2" y2="510" stroke="#e0ddd5" stroke-width="0.5"/>
  <line x1="680.2" y1="60" x2="680.2" y2="510" stroke="#e0ddd5" stroke-width="0.5"/>
  <line x1="702.3" y1="60" x2="702.3" y2="510" stroke="#e0ddd5" stroke-width="0.5"/>
  <line x1="722.2" y1="60" x2="722.2" y2="510" stroke="#e0ddd5" stroke-width="0.5"/>
  <line x1="744.3" y1="60" x2="744.3" y2="510" stroke="#e0ddd5" stroke-width="0.5"/>
  <line x1="765.6" y1="60" x2="765.6" y2="510" stroke="#e0ddd5" stroke-width="0.5"/>
  <line x1="787.7" y1="60" x2="787.7" y2="510" stroke="#e0ddd5" stroke-width="0.5"/>
  <line x1="809.1" y1="60" x2="809.1" y2="510" stroke="#e0ddd5" stroke-width="0.5"/>
  <line x1="831.1" y1="60" x2="831.1" y2="510" stroke="#e0ddd5" stroke-width="0.5"/>
  <line x1="853.2" y1="60" x2="853.2" y2="510" stroke="#e0ddd5" stroke-width="0.5"/>
  <line x1="874.5" y1="60" x2="874.5" y2="510" stroke="#e0ddd5" stroke-width="0.5"/>
  <line x1="896.6" y1="60" x2="896.6" y2="510" stroke="#e0ddd5" stroke-width="0.5"/>
  <line x1="917.9" y1="60" x2="917.9" y2="510" stroke="#e0ddd5" stroke-width="0.5"/>
  <line x1="160" y1="105.0" x2="940" y2="105.0" stroke="#7F77DD" stroke-width="2" opacity="0.35"/>
  <text x="148" y="110.0" text-anchor="end" font-size="14" font-weight="600" fill="#7F77DD">視聴盤 Vol.1</text>
  <circle cx="373.5" cy="105.0" r="5" fill="#7F77DD" opacity="0.85" stroke="white" stroke-width="1"><title>CANNABIS / COUNT DOWN (1999-10-28)</title></circle>
  <circle cx="437.6" cy="105.0" r="5" fill="#7F77DD" opacity="0.85" stroke="white" stroke-width="1"><title>スケボーキング / ビンゴ (2000-01-26)</title></circle>
  <circle cx="382.8" cy="105.0" r="5" fill="#7F77DD" opacity="0.85" stroke="white" stroke-width="1"><title>ノーナ・リーヴス / STOP ME (1999-11-10)</title></circle>
  <circle cx="432.6" cy="105.0" r="5" fill="#7F77DD" opacity="0.85" stroke="white" stroke-width="1"><title>キリンジ / アルカディア (2000-01-19)</title></circle>
  <circle cx="219.1" cy="105.0" r="5" fill="#7F77DD" opacity="0.85" stroke="white" stroke-width="1"><title>クラムボン / はなれ ばなれ (1999-03-25)</title></circle>
  <circle cx="263.2" cy="105.0" r="5" fill="#7F77DD" opacity="0.85" stroke="white" stroke-width="1"><title>SPANOVA / UNTITLED (1999-05-26)</title></circle>
  <circle cx="404.1" cy="105.0" r="5" fill="#7F77DD" opacity="0.85" stroke="white" stroke-width="1"><title>ハーベスト / FEELIN' GROOVY (1999-12-10)</title></circle>
  <circle cx="611.9" cy="105.0" r="5" fill="#7F77DD" opacity="0.85" stroke="white" stroke-width="1"><title>アナム☆マキ / Good Night (デモ) (2000-09-27)</title></circle>
  <circle cx="353.6" cy="105.0" r="5" fill="#7F77DD" opacity="0.85" stroke="white" stroke-width="1"><title>SUPERHYPE / TRUE (1999-09-30)</title></circle>
  <circle cx="458.2" cy="96.0" r="5" fill="#7F77DD" opacity="0.85" stroke="white" stroke-width="1"><title>FOOT STAMP / 大人 (2000-02-24)</title></circle>
  <circle cx="358.6" cy="105.0" r="5" fill="#7F77DD" opacity="0.85" stroke="white" stroke-width="1"><title>HERMANN H / 靴底 (1999-10-07)</title></circle>
  <circle cx="383.5" cy="105.0" r="5" fill="#7F77DD" opacity="0.85" stroke="white" stroke-width="1"><title>WiTH MY FOOT / MAKE MY WAY (1999-11-11)</title></circle>
  <circle cx="458.2" cy="105.0" r="5" fill="#7F77DD" opacity="0.85" stroke="white" stroke-width="1"><title>桔梗 / まぶたを開いたまま (2000-02-24)</title></circle>
  <circle cx="438.3" cy="105.0" r="5" fill="#7F77DD" opacity="0.85" stroke="white" stroke-width="1"><title>ester rina / 満点グライダー (2000-01-27)</title></circle>
  <circle cx="458.2" cy="114.0" r="5" fill="#7F77DD" opacity="0.85" stroke="white" stroke-width="1"><title>TAMAMI / BYE (2000-02-24)</title></circle>
  <line x1="160" y1="195.0" x2="940" y2="195.0" stroke="#1D9E75" stroke-width="2" opacity="0.35"/>
  <text x="148" y="200.0" text-anchor="end" font-size="14" font-weight="600" fill="#1D9E75">視聴盤 Vol.2</text>
  <circle cx="567.1" cy="190.5" r="5" fill="#1D9E75" opacity="0.85" stroke="white" stroke-width="1"><title>花＊花 / あ〜よかった (2000-07-26)</title></circle>
  <circle cx="567.1" cy="199.5" r="5" fill="#1D9E75" opacity="0.85" stroke="white" stroke-width="1"><title>TOMATO CUBE / うたかた (2000-07-26)</title></circle>
  <circle cx="587.0" cy="190.5" r="5" fill="#1D9E75" opacity="0.85" stroke="white" stroke-width="1"><title>スケボーキング / CHILD REPLAY (2000-08-23)</title></circle>
  <circle cx="587.0" cy="199.5" r="5" fill="#1D9E75" opacity="0.85" stroke="white" stroke-width="1"><title>CANNABIS / 妄想R (2000-08-23)</title></circle>
  <circle cx="542.2" cy="195.0" r="5" fill="#1D9E75" opacity="0.85" stroke="white" stroke-width="1"><title>BOaT / 狂言メッセージ (2000-06-21)</title></circle>
  <circle cx="577.0" cy="186.0" r="5" fill="#1D9E75" opacity="0.85" stroke="white" stroke-width="1"><title>クラムボン / 君は僕のもの (2000-08-09)</title></circle>
  <circle cx="557.1" cy="190.5" r="5" fill="#1D9E75" opacity="0.85" stroke="white" stroke-width="1"><title>アナム&amp;マキ / 戦え！野良犬 (2000-07-12)</title></circle>
  <circle cx="557.1" cy="199.5" r="5" fill="#1D9E75" opacity="0.85" stroke="white" stroke-width="1"><title>キリンジ / 君の胸に抱かれたい (2000-07-12)</title></circle>
  <circle cx="577.0" cy="195.0" r="5" fill="#1D9E75" opacity="0.85" stroke="white" stroke-width="1"><title>SUPERHYPE / NUMBER FUTURE (2000-08-09)</title></circle>
  <circle cx="577.0" cy="204.0" r="5" fill="#1D9E75" opacity="0.85" stroke="white" stroke-width="1"><title>RYO the Skywalker / SUNNY DAY WALK (2000-08-09)</title></circle>
  <circle cx="478.8" cy="195.0" r="5" fill="#1D9E75" opacity="0.85" stroke="white" stroke-width="1"><title>Hermann H. / Loser's Parade (2000-03-24)</title></circle>
  <circle cx="523.0" cy="190.5" r="5" fill="#1D9E75" opacity="0.85" stroke="white" stroke-width="1"><title>esterrina / すてきな空 (2000-05-25)</title></circle>
  <circle cx="523.0" cy="199.5" r="5" fill="#1D9E75" opacity="0.85" stroke="white" stroke-width="1"><title>THE PAN / かわらないもの (2000-05-25)</title></circle>
  <circle cx="542.9" cy="195.0" r="5" fill="#1D9E75" opacity="0.85" stroke="white" stroke-width="1"><title>ギャラクティカ★マグナム / 夕凪 (2000-06-22)</title></circle>
  <circle cx="567.8" cy="195.0" r="5" fill="#1D9E75" opacity="0.85" stroke="white" stroke-width="1"><title>VooDoo Hawaiians / 番犬 (2000-07-27)</title></circle>
  <line x1="160" y1="285.0" x2="940" y2="285.0" stroke="#D85A30" stroke-width="2" opacity="0.35"/>
  <text x="148" y="290.0" text-anchor="end" font-size="14" font-weight="600" fill="#D85A30">視聴盤 Vol.3</text>
  <circle cx="631.8" cy="280.5" r="5" fill="#D85A30" opacity="0.85" stroke="white" stroke-width="1"><title>花＊花 / さよなら大好きな人 (2000-10-25)</title></circle>
  <circle cx="631.8" cy="289.5" r="5" fill="#D85A30" opacity="0.85" stroke="white" stroke-width="1"><title>クラムボン / ドギー&amp;マギー (2000-10-25)</title></circle>
  <circle cx="622.6" cy="276.0" r="5" fill="#D85A30" opacity="0.85" stroke="white" stroke-width="1"><title>キリンジ / エイリアンズ (2000-10-12)</title></circle>
  <circle cx="602.0" cy="285.0" r="5" fill="#D85A30" opacity="0.85" stroke="white" stroke-width="1"><title>ノーナ・リーブス / DJ!DJ! (2000-09-13)</title></circle>
  <circle cx="641.8" cy="285.0" r="5" fill="#D85A30" opacity="0.85" stroke="white" stroke-width="1"><title>TOMATO CUBE / 桜 (2000-11-08)</title></circle>
  <circle cx="611.9" cy="285.0" r="5" fill="#D85A30" opacity="0.85" stroke="white" stroke-width="1"><title>アナム＆マキ / Good Night (2000-09-27)</title></circle>
  <circle cx="567.1" cy="280.5" r="5" fill="#D85A30" opacity="0.85" stroke="white" stroke-width="1"><title>花＊花 / あ〜良かった (setagaya mix) (2000-07-26)</title></circle>
  <circle cx="577.0" cy="285.0" r="5" fill="#D85A30" opacity="0.85" stroke="white" stroke-width="1"><title>クラムボン / 君は僕のもの (2000-08-09)</title></circle>
  <circle cx="622.6" cy="285.0" r="5" fill="#D85A30" opacity="0.85" stroke="white" stroke-width="1"><title>キリンジ / イカロスの末裔 (2000-10-12)</title></circle>
  <circle cx="622.6" cy="294.0" r="5" fill="#D85A30" opacity="0.85" stroke="white" stroke-width="1"><title>ノーナ・リーヴス / 二十歳の夏 (2000-10-12)</title></circle>
  <circle cx="567.1" cy="289.5" r="5" fill="#D85A30" opacity="0.85" stroke="white" stroke-width="1"><title>TOMATO CUBE / うたかた (2000-07-26)</title></circle>
  <circle cx="557.1" cy="285.0" r="5" fill="#D85A30" opacity="0.85" stroke="white" stroke-width="1"><title>アナム＆マキ / 戦え！野良犬 (2000-07-12)</title></circle>
  <line x1="160" y1="375.0" x2="940" y2="375.0" stroke="#378ADD" stroke-width="2" opacity="0.35"/>
  <text x="148" y="380.0" text-anchor="end" font-size="14" font-weight="600" fill="#378ADD">2001 Vol.1</text>
  <circle cx="737.2" cy="375.0" r="5" fill="#378ADD" opacity="0.85" stroke="white" stroke-width="1"><title>コブクロ / YELL〜エール〜 (2001-03-22)</title></circle>
  <circle cx="761.4" cy="366.0" r="5" fill="#378ADD" opacity="0.85" stroke="white" stroke-width="1"><title>CANNABIS / 経験 (2001-04-25)</title></circle>
  <circle cx="761.4" cy="375.0" r="5" fill="#378ADD" opacity="0.85" stroke="white" stroke-width="1"><title>キリンジ / グッディ・グッバイ (2001-04-25)</title></circle>
  <circle cx="651.8" cy="375.0" r="5" fill="#378ADD" opacity="0.85" stroke="white" stroke-width="1"><title>アナム&amp;マキ / 春 (2000-11-22)</title></circle>
  <circle cx="641.8" cy="375.0" r="5" fill="#378ADD" opacity="0.85" stroke="white" stroke-width="1"><title>TOMATO CUBE / 桜 (2000-11-08)</title></circle>
  <circle cx="761.4" cy="384.0" r="5" fill="#378ADD" opacity="0.85" stroke="white" stroke-width="1"><title>TOMATO CUBE / 私がいるよ (2001-04-25)</title></circle>
  <circle cx="751.4" cy="375.0" r="5" fill="#378ADD" opacity="0.85" stroke="white" stroke-width="1"><title>BOAT / CIRCLE SOUND (2001-04-11)</title></circle>
  <circle cx="771.3" cy="375.0" r="5" fill="#378ADD" opacity="0.85" stroke="white" stroke-width="1"><title>NONA REEVES / LOVE TOGETHER (バラッパMIX) (2001-05-09)</title></circle>
  <circle cx="632.6" cy="366.0" r="5" fill="#378ADD" opacity="0.85" stroke="white" stroke-width="1"><title>THE PAN / ひばり (2000-10-26)</title></circle>
  <circle cx="698.0" cy="370.5" r="5" fill="#378ADD" opacity="0.85" stroke="white" stroke-width="1"><title>Hermann H. / 夜には星と音楽を (2001-01-26)</title></circle>
  <circle cx="698.0" cy="379.5" r="5" fill="#378ADD" opacity="0.85" stroke="white" stroke-width="1"><title>What's Love? / 泣けるほど (2001-01-26)</title></circle>
  <circle cx="632.6" cy="375.0" r="5" fill="#378ADD" opacity="0.85" stroke="white" stroke-width="1"><title>FOOT STAMP / 人 (2000-10-26)</title></circle>
  <circle cx="632.6" cy="384.0" r="5" fill="#378ADD" opacity="0.85" stroke="white" stroke-width="1"><title>PHEW PHEW L!VE / on and on (2000-10-26)</title></circle>
  <line x1="160" y1="465.0" x2="940" y2="465.0" stroke="#BA7517" stroke-width="2" opacity="0.35"/>
  <text x="148" y="470.0" text-anchor="end" font-size="14" font-weight="600" fill="#BA7517">13曲1000円</text>
  <circle cx="737.2" cy="465.0" r="5" fill="#BA7517" opacity="0.85" stroke="white" stroke-width="1"><title>コブクロ / Bell (2001-03-22)</title></circle>
  <circle cx="781.3" cy="460.5" r="5" fill="#BA7517" opacity="0.85" stroke="white" stroke-width="1"><title>クラムボン / サラウンド (2001-05-23)</title></circle>
  <circle cx="622.6" cy="465.0" r="5" fill="#BA7517" opacity="0.85" stroke="white" stroke-width="1"><title>キリンジ / エイリアンズ (2000-10-12)</title></circle>
  <circle cx="478.1" cy="465.0" r="5" fill="#BA7517" opacity="0.85" stroke="white" stroke-width="1"><title>ノーナ・リーブス / LOVE TOGETHER (2000-03-23)</title></circle>
  <circle cx="797.7" cy="465.0" r="5" fill="#BA7517" opacity="0.85" stroke="white" stroke-width="1"><title>森広隆 / ただ時が経っただけで (2001-06-15)</title></circle>
  <circle cx="557.1" cy="465.0" r="5" fill="#BA7517" opacity="0.85" stroke="white" stroke-width="1"><title>アナム＆マキ / 戦え！野良犬 (2000-07-12)</title></circle>
  <circle cx="781.3" cy="469.5" r="5" fill="#BA7517" opacity="0.85" stroke="white" stroke-width="1"><title>TOMATO CUBE / choose my life (2001-05-23)</title></circle>
  <circle cx="791.3" cy="460.5" r="5" fill="#BA7517" opacity="0.85" stroke="white" stroke-width="1"><title>THE PAN / 情熱 (2001-06-06)</title></circle>
  <circle cx="612.6" cy="465.0" r="5" fill="#BA7517" opacity="0.85" stroke="white" stroke-width="1"><title>FOOT STAMP / 人 (2000-09-28)</title></circle>
  <circle cx="816.2" cy="465.0" r="5" fill="#BA7517" opacity="0.85" stroke="white" stroke-width="1"><title>CANNABIS / 誓いの空 (2001-07-11)</title></circle>
  <circle cx="751.4" cy="465.0" r="5" fill="#BA7517" opacity="0.85" stroke="white" stroke-width="1"><title>BOAT / ALL (2001-04-11)</title></circle>
  <circle cx="478.8" cy="465.0" r="5" fill="#BA7517" opacity="0.85" stroke="white" stroke-width="1"><title>Hermann H. / fruity machine gun (2000-03-24)</title></circle>
  <circle cx="791.3" cy="469.5" r="5" fill="#BA7517" opacity="0.85" stroke="white" stroke-width="1"><title>What's Love? / かえり路 (2001-06-06)</title></circle>
  <text x="160" y="28" font-size="16" font-weight="700" fill="#3d3d3a">北青山的 — 収録曲の初出リリース年表</text>
</svg>