<svg xmlns="http://www.w3.org/2000/svg" width="952" height="578" viewBox="0 0 952 578" style="background:#fafaf7; font-family:Noto Sans JP, Hiragino Kaku Gothic Pro, Meiryo, sans-serif;">
  <rect x="0" y="78.0" width="952" height="90" fill="#f4f3ee"/>
  <rect x="0" y="168.0" width="952" height="90" fill="#fafaf7"/>
  <rect x="0" y="258.0" width="952" height="90" fill="#f4f3ee"/>
  <rect x="0" y="348.0" width="952" height="90" fill="#fafaf7"/>
  <rect x="0" y="438.0" width="952" height="90" fill="#f4f3ee"/>
  <line x1="30.0" y1="58" x2="30.0" y2="538" stroke="#c8c6be" stroke-width="1" stroke-dasharray="4 4"/>
  <text x="30.0" y="554" text-anchor="middle" font-size="13" fill="#888780">1999</text>
  <text x="30.0" y="72" text-anchor="middle" font-size="13" fill="#888780">1999</text>
  <line x1="329.1" y1="58" x2="329.1" y2="538" stroke="#c8c6be" stroke-width="1" stroke-dasharray="4 4"/>
  <text x="329.1" y="554" text-anchor="middle" font-size="13" fill="#888780">2000</text>
  <text x="329.1" y="72" text-anchor="middle" font-size="13" fill="#888780">2000</text>
  <line x1="628.9" y1="58" x2="628.9" y2="538" stroke="#c8c6be" stroke-width="1" stroke-dasharray="4 4"/>
  <text x="628.9" y="554" text-anchor="middle" font-size="13" fill="#888780">2001</text>
  <text x="628.9" y="72" text-anchor="middle" font-size="13" fill="#888780">2001</text>
  <line x1="928.0" y1="58" x2="928.0" y2="538" stroke="#c8c6be" stroke-width="1" stroke-dasharray="4 4"/>
  <text x="928.0" y="554" text-anchor="middle" font-size="13" fill="#888780">2002</text>
  <text x="928.0" y="72" text-anchor="middle" font-size="13" fill="#888780">2002</text>
  <line x1="30.0" y1="78" x2="30.0" y2="528" stroke="#e0ddd5" stroke-width="0.5"/>
  <line x1="55.4" y1="78" x2="55.4" y2="528" stroke="#e0ddd5" stroke-width="0.5"/>
  <line x1="78.3" y1="78" x2="78.3" y2="528" stroke="#e0ddd5" stroke-width="0.5"/>
  <line x1="103.7" y1="78" x2="103.7" y2="528" stroke="#e0ddd5" stroke-width="0.5"/>
  <line x1="128.3" y1="78" x2="128.3" y2="528" stroke="#e0ddd5" stroke-width="0.5"/>
  <line x1="153.7" y1="78" x2="153.7" y2="528" stroke="#e0ddd5" stroke-width="0.5"/>
  <line x1="178.3" y1="78" x2="178.3" y2="528" stroke="#e0ddd5" stroke-width="0.5"/>
  <line x1="203.7" y1="78" x2="203.7" y2="528" stroke="#e0ddd5" stroke-width="0.5"/>
  <line x1="229.1" y1="78" x2="229.1" y2="528" stroke="#e0ddd5" stroke-width="0.5"/>
  <line x1="253.7" y1="78" x2="253.7" y2="528" stroke="#e0ddd5" stroke-width="0.5"/>
  <line x1="279.1" y1="78" x2="279.1" y2="528" stroke="#e0ddd5" stroke-width="0.5"/>
  <line x1="303.7" y1="78" x2="303.7" y2="528" stroke="#e0ddd5" stroke-width="0.5"/>
  <line x1="329.1" y1="78" x2="329.1" y2="528" stroke="#e0ddd5" stroke-width="0.5"/>
  <line x1="354.5" y1="78" x2="354.5" y2="528" stroke="#e0ddd5" stroke-width="0.5"/>
  <line x1="378.2" y1="78" x2="378.2" y2="528" stroke="#e0ddd5" stroke-width="0.5"/>
  <line x1="403.6" y1="78" x2="403.6" y2="528" stroke="#e0ddd5" stroke-width="0.5"/>
  <line x1="428.2" y1="78" x2="428.2" y2="528" stroke="#e0ddd5" stroke-width="0.5"/>
  <line x1="453.6" y1="78" x2="453.6" y2="528" stroke="#e0ddd5" stroke-width="0.5"/>
  <line x1="478.2" y1="78" x2="478.2" y2="528" stroke="#e0ddd5" stroke-width="0.5"/>
  <line x1="503.6" y1="78" x2="503.6" y2="528" stroke="#e0ddd5" stroke-width="0.5"/>
  <line x1="529.0" y1="78" x2="529.0" y2="528" stroke="#e0ddd5" stroke-width="0.5"/>
  <line x1="553.6" y1="78" x2="553.6" y2="528" stroke="#e0ddd5" stroke-width="0.5"/>
  <line x1="579.0" y1="78" x2="579.0" y2="528" stroke="#e0ddd5" stroke-width="0.5"/>
  <line x1="603.5" y1="78" x2="603.5" y2="528" stroke="#e0ddd5" stroke-width="0.5"/>
  <line x1="628.9" y1="78" x2="628.9" y2="528" stroke="#e0ddd5" stroke-width="0.5"/>
  <line x1="654.3" y1="78" x2="654.3" y2="528" stroke="#e0ddd5" stroke-width="0.5"/>
  <line x1="677.3" y1="78" x2="677.3" y2="528" stroke="#e0ddd5" stroke-width="0.5"/>
  <line x1="702.7" y1="78" x2="702.7" y2="528" stroke="#e0ddd5" stroke-width="0.5"/>
  <line x1="727.3" y1="78" x2="727.3" y2="528" stroke="#e0ddd5" stroke-width="0.5"/>
  <line x1="752.7" y1="78" x2="752.7" y2="528" stroke="#e0ddd5" stroke-width="0.5"/>
  <line x1="777.2" y1="78" x2="777.2" y2="528" stroke="#e0ddd5" stroke-width="0.5"/>
  <line x1="802.6" y1="78" x2="802.6" y2="528" stroke="#e0ddd5" stroke-width="0.5"/>
  <line x1="828.0" y1="78" x2="828.0" y2="528" stroke="#e0ddd5" stroke-width="0.5"/>
  <line x1="852.6" y1="78" x2="852.6" y2="528" stroke="#e0ddd5" stroke-width="0.5"/>
  <line x1="878.0" y1="78" x2="878.0" y2="528" stroke="#e0ddd5" stroke-width="0.5"/>
  <line x1="902.6" y1="78" x2="902.6" y2="528" stroke="#e0ddd5" stroke-width="0.5"/>
  <line x1="30" y1="123.0" x2="928" y2="123.0" stroke="#7F77DD" stroke-width="2" opacity="0.35"/>
  <text x="36" y="96.0" text-anchor="start" font-size="15" font-weight="700" fill="#7F77DD" opacity="0.9">視聴盤 Vol.1</text>
  <circle cx="275.8" cy="123.0" r="5" fill="#7F77DD" opacity="0.85" stroke="white" stroke-width="1"><title>CANNABIS / COUNT DOWN (1999-10-28)</title></circle>
  <circle cx="349.5" cy="123.0" r="5" fill="#7F77DD" opacity="0.85" stroke="white" stroke-width="1"><title>スケボーキング / ビンゴ (2000-01-26)</title></circle>
  <circle cx="286.5" cy="123.0" r="5" fill="#7F77DD" opacity="0.85" stroke="white" stroke-width="1"><title>ノーナ・リーヴス / STOP ME (1999-11-10)</title></circle>
  <circle cx="343.8" cy="123.0" r="5" fill="#7F77DD" opacity="0.85" stroke="white" stroke-width="1"><title>キリンジ / アルカディア (2000-01-19)</title></circle>
  <circle cx="98.0" cy="123.0" r="5" fill="#7F77DD" opacity="0.85" stroke="white" stroke-width="1"><title>クラムボン / はなれ ばなれ (1999-03-25)</title></circle>
  <circle cx="148.8" cy="123.0" r="5" fill="#7F77DD" opacity="0.85" stroke="white" stroke-width="1"><title>SPANOVA / UNTITLED (1999-05-26)</title></circle>
  <circle cx="311.0" cy="123.0" r="5" fill="#7F77DD" opacity="0.85" stroke="white" stroke-width="1"><title>ハーベスト / FEELIN' GROOVY (1999-12-10)</title></circle>
  <circle cx="550.3" cy="123.0" r="5" fill="#7F77DD" opacity="0.85" stroke="white" stroke-width="1"><title>アナム☆マキ / Good Night (デモ) (2000-09-27)</title></circle>
  <circle cx="252.9" cy="123.0" r="5" fill="#7F77DD" opacity="0.85" stroke="white" stroke-width="1"><title>SUPERHYPE / TRUE (1999-09-30)</title></circle>
  <circle cx="373.3" cy="114.0" r="5" fill="#7F77DD" opacity="0.85" stroke="white" stroke-width="1"><title>FOOT STAMP / 大人 (2000-02-24)</title></circle>
  <circle cx="258.6" cy="123.0" r="5" fill="#7F77DD" opacity="0.85" stroke="white" stroke-width="1"><title>HERMANN H / 靴底 (1999-10-07)</title></circle>
  <circle cx="287.3" cy="123.0" r="5" fill="#7F77DD" opacity="0.85" stroke="white" stroke-width="1"><title>WiTH MY FOOT / MAKE MY WAY (1999-11-11)</title></circle>
  <circle cx="373.3" cy="123.0" r="5" fill="#7F77DD" opacity="0.85" stroke="white" stroke-width="1"><title>桔梗 / まぶたを開いたまま (2000-02-24)</title></circle>
  <circle cx="350.4" cy="123.0" r="5" fill="#7F77DD" opacity="0.85" stroke="white" stroke-width="1"><title>ester rina / 満点グライダー (2000-01-27)</title></circle>
  <circle cx="373.3" cy="132.0" r="5" fill="#7F77DD" opacity="0.85" stroke="white" stroke-width="1"><title>TAMAMI / BYE (2000-02-24)</title></circle>
  <line x1="30" y1="213.0" x2="928" y2="213.0" stroke="#1D9E75" stroke-width="2" opacity="0.35"/>
  <text x="36" y="186.0" text-anchor="start" font-size="15" font-weight="700" fill="#1D9E75" opacity="0.9">視聴盤 Vol.2</text>
  <circle cx="498.7" cy="208.5" r="5" fill="#1D9E75" opacity="0.85" stroke="white" stroke-width="1"><title>花＊花 / あ〜よかった (2000-07-26)</title></circle>
  <circle cx="498.7" cy="217.5" r="5" fill="#1D9E75" opacity="0.85" stroke="white" stroke-width="1"><title>TOMATO CUBE / うたかた (2000-07-26)</title></circle>
  <circle cx="521.6" cy="208.5" r="5" fill="#1D9E75" opacity="0.85" stroke="white" stroke-width="1"><title>スケボーキング / CHILD REPLAY (2000-08-23)</title></circle>
  <circle cx="521.6" cy="217.5" r="5" fill="#1D9E75" opacity="0.85" stroke="white" stroke-width="1"><title>CANNABIS / 妄想R (2000-08-23)</title></circle>
  <circle cx="470.0" cy="213.0" r="5" fill="#1D9E75" opacity="0.85" stroke="white" stroke-width="1"><title>BOaT / 狂言メッセージ (2000-06-21)</title></circle>
  <circle cx="510.1" cy="204.0" r="5" fill="#1D9E75" opacity="0.85" stroke="white" stroke-width="1"><title>クラムボン / 君は僕のもの (2000-08-09)</title></circle>
  <circle cx="487.2" cy="208.5" r="5" fill="#1D9E75" opacity="0.85" stroke="white" stroke-width="1"><title>アナム&amp;マキ / 戦え！野良犬 (2000-07-12)</title></circle>
  <circle cx="487.2" cy="217.5" r="5" fill="#1D9E75" opacity="0.85" stroke="white" stroke-width="1"><title>キリンジ / 君の胸に抱かれたい (2000-07-12)</title></circle>
  <circle cx="510.1" cy="213.0" r="5" fill="#1D9E75" opacity="0.85" stroke="white" stroke-width="1"><title>SUPERHYPE / NUMBER FUTURE (2000-08-09)</title></circle>
  <circle cx="510.1" cy="222.0" r="5" fill="#1D9E75" opacity="0.85" stroke="white" stroke-width="1"><title>RYO the Skywalker / SUNNY DAY WALK (2000-08-09)</title></circle>
  <circle cx="397.1" cy="213.0" r="5" fill="#1D9E75" opacity="0.85" stroke="white" stroke-width="1"><title>Hermann H. / Loser's Parade (2000-03-24)</title></circle>
  <circle cx="447.9" cy="208.5" r="5" fill="#1D9E75" opacity="0.85" stroke="white" stroke-width="1"><title>esterrina / すてきな空 (2000-05-25)</title></circle>
  <circle cx="447.9" cy="217.5" r="5" fill="#1D9E75" opacity="0.85" stroke="white" stroke-width="1"><title>THE PAN / かわらないもの (2000-05-25)</title></circle>
  <circle cx="470.8" cy="213.0" r="5" fill="#1D9E75" opacity="0.85" stroke="white" stroke-width="1"><title>ギャラクティカ★マグナム / 夕凪 (2000-06-22)</title></circle>
  <circle cx="499.5" cy="213.0" r="5" fill="#1D9E75" opacity="0.85" stroke="white" stroke-width="1"><title>VooDoo Hawaiians / 番犬 (2000-07-27)</title></circle>
  <line x1="30" y1="303.0" x2="928" y2="303.0" stroke="#D85A30" stroke-width="2" opacity="0.35"/>
  <text x="36" y="276.0" text-anchor="start" font-size="15" font-weight="700" fill="#D85A30" opacity="0.9">視聴盤 Vol.3</text>
  <circle cx="573.2" cy="298.5" r="5" fill="#D85A30" opacity="0.85" stroke="white" stroke-width="1"><title>花＊花 / さよなら大好きな人 (2000-10-25)</title></circle>
  <circle cx="573.2" cy="307.5" r="5" fill="#D85A30" opacity="0.85" stroke="white" stroke-width="1"><title>クラムボン / ドギー&amp;マギー (2000-10-25)</title></circle>
  <circle cx="562.6" cy="294.0" r="5" fill="#D85A30" opacity="0.85" stroke="white" stroke-width="1"><title>キリンジ / エイリアンズ (2000-10-12)</title></circle>
  <circle cx="538.8" cy="303.0" r="5" fill="#D85A30" opacity="0.85" stroke="white" stroke-width="1"><title>ノーナ・リーブス / DJ!DJ! (2000-09-13)</title></circle>
  <circle cx="584.7" cy="303.0" r="5" fill="#D85A30" opacity="0.85" stroke="white" stroke-width="1"><title>TOMATO CUBE / 桜 (2000-11-08)</title></circle>
  <circle cx="550.3" cy="303.0" r="5" fill="#D85A30" opacity="0.85" stroke="white" stroke-width="1"><title>アナム＆マキ / Good Night (2000-09-27)</title></circle>
  <circle cx="498.7" cy="298.5" r="5" fill="#D85A30" opacity="0.85" stroke="white" stroke-width="1"><title>花＊花 / あ〜良かった (setagaya mix) (2000-07-26)</title></circle>
  <circle cx="510.1" cy="303.0" r="5" fill="#D85A30" opacity="0.85" stroke="white" stroke-width="1"><title>クラムボン / 君は僕のもの (2000-08-09)</title></circle>
  <circle cx="562.6" cy="303.0" r="5" fill="#D85A30" opacity="0.85" stroke="white" stroke-width="1"><title>キリンジ / イカロスの末裔 (2000-10-12)</title></circle>
  <circle cx="562.6" cy="312.0" r="5" fill="#D85A30" opacity="0.85" stroke="white" stroke-width="1"><title>ノーナ・リーヴス / 二十歳の夏 (2000-10-12)</title></circle>
  <circle cx="498.7" cy="307.5" r="5" fill="#D85A30" opacity="0.85" stroke="white" stroke-width="1"><title>TOMATO CUBE / うたかた (2000-07-26)</title></circle>
  <circle cx="487.2" cy="303.0" r="5" fill="#D85A30" opacity="0.85" stroke="white" stroke-width="1"><title>アナム＆マキ / 戦え！野良犬 (2000-07-12)</title></circle>
  <line x1="30" y1="393.0" x2="928" y2="393.0" stroke="#378ADD" stroke-width="2" opacity="0.35"/>
  <text x="36" y="366.0" text-anchor="start" font-size="15" font-weight="700" fill="#378ADD" opacity="0.9">2001 Vol.1</text>
  <circle cx="694.5" cy="393.0" r="5" fill="#378ADD" opacity="0.85" stroke="white" stroke-width="1"><title>コブクロ / YELL〜エール〜 (2001-03-22)</title></circle>
  <circle cx="722.3" cy="384.0" r="5" fill="#378ADD" opacity="0.85" stroke="white" stroke-width="1"><title>CANNABIS / 経験 (2001-04-25)</title></circle>
  <circle cx="722.3" cy="393.0" r="5" fill="#378ADD" opacity="0.85" stroke="white" stroke-width="1"><title>キリンジ / グッディ・グッバイ (2001-04-25)</title></circle>
  <circle cx="596.2" cy="393.0" r="5" fill="#378ADD" opacity="0.85" stroke="white" stroke-width="1"><title>アナム&amp;マキ / 春 (2000-11-22)</title></circle>
  <circle cx="584.7" cy="393.0" r="5" fill="#378ADD" opacity="0.85" stroke="white" stroke-width="1"><title>TOMATO CUBE / 桜 (2000-11-08)</title></circle>
  <circle cx="722.3" cy="402.0" r="5" fill="#378ADD" opacity="0.85" stroke="white" stroke-width="1"><title>TOMATO CUBE / 私がいるよ (2001-04-25)</title></circle>
  <circle cx="710.9" cy="393.0" r="5" fill="#378ADD" opacity="0.85" stroke="white" stroke-width="1"><title>BOAT / CIRCLE SOUND (2001-04-11)</title></circle>
  <circle cx="733.8" cy="393.0" r="5" fill="#378ADD" opacity="0.85" stroke="white" stroke-width="1"><title>NONA REEVES / LOVE TOGETHER (バラッパMIX) (2001-05-09)</title></circle>
  <circle cx="574.0" cy="384.0" r="5" fill="#378ADD" opacity="0.85" stroke="white" stroke-width="1"><title>THE PAN / ひばり (2000-10-26)</title></circle>
  <circle cx="649.4" cy="388.5" r="5" fill="#378ADD" opacity="0.85" stroke="white" stroke-width="1"><title>Hermann H. / 夜には星と音楽を (2001-01-26)</title></circle>
  <circle cx="649.4" cy="397.5" r="5" fill="#378ADD" opacity="0.85" stroke="white" stroke-width="1"><title>What's Love? / 泣けるほど (2001-01-26)</title></circle>
  <circle cx="574.0" cy="393.0" r="5" fill="#378ADD" opacity="0.85" stroke="white" stroke-width="1"><title>FOOT STAMP / 人 (2000-10-26)</title></circle>
  <circle cx="574.0" cy="402.0" r="5" fill="#378ADD" opacity="0.85" stroke="white" stroke-width="1"><title>PHEW PHEW L!VE / on and on (2000-10-26)</title></circle>
  <line x1="30" y1="483.0" x2="928" y2="483.0" stroke="#BA7517" stroke-width="2" opacity="0.35"/>
  <text x="36" y="456.0" text-anchor="start" font-size="15" font-weight="700" fill="#BA7517" opacity="0.9">13曲1000円</text>
  <circle cx="694.5" cy="483.0" r="5" fill="#BA7517" opacity="0.85" stroke="white" stroke-width="1"><title>コブクロ / Bell (2001-03-22)</title></circle>
  <circle cx="745.3" cy="478.5" r="5" fill="#BA7517" opacity="0.85" stroke="white" stroke-width="1"><title>クラムボン / サラウンド (2001-05-23)</title></circle>
  <circle cx="562.6" cy="483.0" r="5" fill="#BA7517" opacity="0.85" stroke="white" stroke-width="1"><title>キリンジ / エイリアンズ (2000-10-12)</title></circle>
  <circle cx="396.2" cy="483.0" r="5" fill="#BA7517" opacity="0.85" stroke="white" stroke-width="1"><title>ノーナ・リーブス / LOVE TOGETHER (2000-03-23)</title></circle>
  <circle cx="764.1" cy="483.0" r="5" fill="#BA7517" opacity="0.85" stroke="white" stroke-width="1"><title>森広隆 / ただ時が経っただけで (2001-06-15)</title></circle>
  <circle cx="487.2" cy="483.0" r="5" fill="#BA7517" opacity="0.85" stroke="white" stroke-width="1"><title>アナム＆マキ / 戦え！野良犬 (2000-07-12)</title></circle>
  <circle cx="745.3" cy="487.5" r="5" fill="#BA7517" opacity="0.85" stroke="white" stroke-width="1"><title>TOMATO CUBE / choose my life (2001-05-23)</title></circle>
  <circle cx="756.8" cy="478.5" r="5" fill="#BA7517" opacity="0.85" stroke="white" stroke-width="1"><title>THE PAN / 情熱 (2001-06-06)</title></circle>
  <circle cx="551.1" cy="483.0" r="5" fill="#BA7517" opacity="0.85" stroke="white" stroke-width="1"><title>FOOT STAMP / 人 (2000-09-28)</title></circle>
  <circle cx="785.4" cy="483.0" r="5" fill="#BA7517" opacity="0.85" stroke="white" stroke-width="1"><title>CANNABIS / 誓いの空 (2001-07-11)</title></circle>
  <circle cx="710.9" cy="483.0" r="5" fill="#BA7517" opacity="0.85" stroke="white" stroke-width="1"><title>BOAT / ALL (2001-04-11)</title></circle>
  <circle cx="397.1" cy="483.0" r="5" fill="#BA7517" opacity="0.85" stroke="white" stroke-width="1"><title>Hermann H. / fruity machine gun (2000-03-24)</title></circle>
  <circle cx="756.8" cy="487.5" r="5" fill="#BA7517" opacity="0.85" stroke="white" stroke-width="1"><title>What's Love? / かえり路 (2001-06-06)</title></circle>
  <text x="30" y="32" font-size="22" font-weight="700" fill="#3d3d3a">北青山的 — 収録曲の初出リリース年表</text>
</svg>